<svg xmlns="http://www.w3.org/2000/svg" width="32" height="32" viewBox="0 0 32 32" fill="none">
  <defs>
    <linearGradient id="boltGrad" x1="0" y1="0" x2="1" y2="1">
      <stop offset="0" stop-color="#059669"/>
      <stop offset="1" stop-color="#047857"/>
    </linearGradient>
  </defs>
  <rect width="32" height="32" rx="8" fill="url(#boltGrad)"/>
  <g transform="translate(-0.5,-0.5) scale(1.375)">
    <path d="M4 14a1 1 0 0 1-.78-1.63l9.9-10.2a.5.5 0 0 1 .86.46l-1.92 6.02A1 1 0 0 0 13 10h7a1 1 0 0 1 .78 1.63l-9.9 10.2a.5.5 0 0 1-.86-.46l1.92-6.02A1 1 0 0 0 11 14z" fill="#ffffff"/>
  </g>
</svg>
